<mxfile host="app.diagrams.net" modified="2024-03-11T11:48:27.117Z" agent="Mozilla/5.0 (Windows NT 10.0; Win64; x64) AppleWebKit/537.36 (KHTML, like Gecko) Chrome/122.0.0.0 Safari/537.36" etag="LKLJdLOpuFeLPlqqTCQo" version="24.0.4" type="device">
  <diagram name="Página-1" id="_XXLfY0-DHlX_bpDByU7">
    <mxGraphModel dx="765" dy="409" grid="1" gridSize="10" guides="1" tooltips="1" connect="1" arrows="1" fold="1" page="1" pageScale="1" pageWidth="827" pageHeight="1169" math="0" shadow="0">
      <root>
        <mxCell id="0" />
        <mxCell id="1" parent="0" />
        <mxCell id="WEfu_8NNjR3gMmaRkI1D-1" value="" style="whiteSpace=wrap;html=1;aspect=fixed;" vertex="1" parent="1">
          <mxGeometry x="129" y="40" width="571" height="571" as="geometry" />
        </mxCell>
        <mxCell id="WEfu_8NNjR3gMmaRkI1D-3" value="" style="rounded=0;whiteSpace=wrap;html=1;gradientColor=#7F00FF;gradientDirection=north;fillColor=#4a2074;" vertex="1" parent="1">
          <mxGeometry x="129" y="72" width="571" height="150" as="geometry" />
        </mxCell>
        <mxCell id="WEfu_8NNjR3gMmaRkI1D-4" value="" style="ellipse;whiteSpace=wrap;html=1;aspect=fixed;" vertex="1" parent="1">
          <mxGeometry x="160" y="81" width="100" height="100" as="geometry" />
        </mxCell>
        <mxCell id="WEfu_8NNjR3gMmaRkI1D-7" value="Nome" style="rounded=0;whiteSpace=wrap;html=1;textOpacity=50;" vertex="1" parent="1">
          <mxGeometry x="370" y="101" width="286" height="60" as="geometry" />
        </mxCell>
        <mxCell id="WEfu_8NNjR3gMmaRkI1D-8" value="" style="rounded=0;whiteSpace=wrap;html=1;gradientColor=#6600CC;fillColor=#000000;gradientDirection=north;" vertex="1" parent="1">
          <mxGeometry x="129" y="190" width="571" height="360" as="geometry" />
        </mxCell>
        <mxCell id="WEfu_8NNjR3gMmaRkI1D-10" value="HEAD" style="text;html=1;align=center;verticalAlign=middle;whiteSpace=wrap;rounded=0;textOpacity=50;strokeWidth=5;fontColor=#ffffff;labelBackgroundColor=#333333;labelBorderColor=none;" vertex="1" parent="1">
          <mxGeometry x="280" y="135" width="60" height="30" as="geometry" />
        </mxCell>
        <mxCell id="WEfu_8NNjR3gMmaRkI1D-11" value="BODY" style="text;html=1;align=center;verticalAlign=middle;whiteSpace=wrap;rounded=0;opacity=60;textOpacity=50;fontColor=#FFFFFF;labelBackgroundColor=#333333;" vertex="1" parent="1">
          <mxGeometry x="570" y="480" width="60" height="30" as="geometry" />
        </mxCell>
        <mxCell id="WEfu_8NNjR3gMmaRkI1D-14" value="Objetivo" style="rounded=0;whiteSpace=wrap;html=1;textOpacity=50;" vertex="1" parent="1">
          <mxGeometry x="140" y="210" width="540" height="40" as="geometry" />
        </mxCell>
        <mxCell id="WEfu_8NNjR3gMmaRkI1D-15" value="Informações" style="rounded=0;whiteSpace=wrap;html=1;textOpacity=50;" vertex="1" parent="1">
          <mxGeometry x="140" y="270" width="190" height="80" as="geometry" />
        </mxCell>
        <mxCell id="WEfu_8NNjR3gMmaRkI1D-16" value="Formação" style="rounded=0;whiteSpace=wrap;html=1;textOpacity=50;" vertex="1" parent="1">
          <mxGeometry x="140" y="370" width="190" height="80" as="geometry" />
        </mxCell>
        <mxCell id="WEfu_8NNjR3gMmaRkI1D-17" value="Mande uma mensagem" style="rounded=0;whiteSpace=wrap;html=1;textOpacity=50;" vertex="1" parent="1">
          <mxGeometry x="506" y="300" width="150" height="130" as="geometry" />
        </mxCell>
        <mxCell id="WEfu_8NNjR3gMmaRkI1D-21" value="Tabela" style="rounded=0;whiteSpace=wrap;html=1;textOpacity=50;" vertex="1" parent="1">
          <mxGeometry x="160" y="470" width="120" height="60" as="geometry" />
        </mxCell>
        <mxCell id="WEfu_8NNjR3gMmaRkI1D-22" value="idiomas" style="rounded=0;whiteSpace=wrap;html=1;textOpacity=50;" vertex="1" parent="1">
          <mxGeometry x="370" y="300" width="60" height="130" as="geometry" />
        </mxCell>
        <mxCell id="WEfu_8NNjR3gMmaRkI1D-25" value="" style="shape=umlActor;verticalLabelPosition=bottom;verticalAlign=top;html=1;outlineConnect=0;" vertex="1" parent="1">
          <mxGeometry x="195" y="101" width="30" height="60" as="geometry" />
        </mxCell>
        <mxCell id="WEfu_8NNjR3gMmaRkI1D-27" value="Selecionar ficheiro" style="rounded=0;whiteSpace=wrap;html=1;labelPosition=center;verticalLabelPosition=middle;align=center;verticalAlign=middle;textOpacity=50;" vertex="1" parent="1">
          <mxGeometry x="509" y="407" width="144" height="20" as="geometry" />
        </mxCell>
        <mxCell id="WEfu_8NNjR3gMmaRkI1D-29" value="" style="rounded=0;whiteSpace=wrap;html=1;gradientColor=#7F00FF;fillColor=#60169b;" vertex="1" parent="1">
          <mxGeometry x="129" y="40" width="571" height="32" as="geometry" />
        </mxCell>
        <mxCell id="WEfu_8NNjR3gMmaRkI1D-31" value="Contatos" style="rounded=0;whiteSpace=wrap;html=1;textOpacity=50;" vertex="1" parent="1">
          <mxGeometry x="590" y="45" width="90" height="22" as="geometry" />
        </mxCell>
        <mxCell id="WEfu_8NNjR3gMmaRkI1D-32" value="" style="rounded=0;whiteSpace=wrap;html=1;fillColor=#000000;" vertex="1" parent="1">
          <mxGeometry x="129" y="550" width="571" height="60" as="geometry" />
        </mxCell>
        <mxCell id="WEfu_8NNjR3gMmaRkI1D-34" style="edgeStyle=orthogonalEdgeStyle;rounded=0;orthogonalLoop=1;jettySize=auto;html=1;" edge="1" parent="1" source="WEfu_8NNjR3gMmaRkI1D-33" target="WEfu_8NNjR3gMmaRkI1D-32">
          <mxGeometry relative="1" as="geometry" />
        </mxCell>
        <mxCell id="WEfu_8NNjR3gMmaRkI1D-33" value="FOOTER" style="text;html=1;align=center;verticalAlign=middle;whiteSpace=wrap;rounded=0;textOpacity=50;fontColor=#FFFFFF;labelBackgroundColor=#333333;" vertex="1" parent="1">
          <mxGeometry x="380" y="565" width="60" height="30" as="geometry" />
        </mxCell>
        <mxCell id="WEfu_8NNjR3gMmaRkI1D-37" value="Nome" style="shape=partialRectangle;whiteSpace=wrap;html=1;top=0;bottom=0;fillColor=none;" vertex="1" parent="1">
          <mxGeometry x="521" y="305.5" width="120" height="14.5" as="geometry" />
        </mxCell>
        <mxCell id="WEfu_8NNjR3gMmaRkI1D-38" value="E-mail" style="shape=partialRectangle;whiteSpace=wrap;html=1;top=0;bottom=0;fillColor=none;" vertex="1" parent="1">
          <mxGeometry x="521" y="330" width="120" height="14.5" as="geometry" />
        </mxCell>
        <mxCell id="WEfu_8NNjR3gMmaRkI1D-39" value="Área de texto" style="shape=partialRectangle;whiteSpace=wrap;html=1;top=0;bottom=0;fillColor=none;" vertex="1" parent="1">
          <mxGeometry x="521" y="360" width="120" height="34.5" as="geometry" />
        </mxCell>
      </root>
    </mxGraphModel>
  </diagram>
</mxfile>
